name ./resultDataOpenSim/trcMotMarkerGrf/sub09/grf-02-05.mot
datacolumns 19
datarows 27
range 1.40800000 1.51200000
endheader

                time	     ground_force_vx	     ground_force_vy	     ground_force_vz	     ground_force_px	     ground_force_py	     ground_force_pz	   l_ground_force_vx	   l_ground_force_vy	   l_ground_force_vz	   l_ground_force_px	   l_ground_force_py	   l_ground_force_pz	     ground_torque_x	     ground_torque_y	     ground_torque_z	   l_ground_torque_x	   l_ground_torque_y	   l_ground_torque_z	
          1.40800000	        -49.58662649	        516.05595468	        -32.99616149	          0.94157603	          0.00000000	          0.14105201	          0.00000000	          0.00000000	          0.00000000	          0.00000000	          0.00000000	          0.00000000	          0.00000000	          2.22686283	          0.00000000	          0.00000000	          0.00000000	          0.00000000	
          1.41200000	        -43.45975444	        505.45958670	        -28.48052220	          0.94374594	          0.00000000	          0.14128961	          0.00000000	          0.00000000	          0.00000000	          0.00000000	          0.00000000	          0.00000000	          0.00000000	          2.08031374	          0.00000000	          0.00000000	          0.00000000	          0.00000000	
          1.41600000	        -37.47784620	        495.72839946	        -23.48827775	          0.94592241	          0.00000000	          0.14143436	          0.00000000	          0.00000000	          0.00000000	          0.00000000	          0.00000000	          0.00000000	          0.00000000	          1.94897340	          0.00000000	          0.00000000	          0.00000000	          0.00000000	
          1.42000000	        -32.78227355	        486.80365983	        -18.71370307	          0.94825899	          0.00000000	          0.14153003	          0.00000000	          0.00000000	          0.00000000	          0.00000000	          0.00000000	          0.00000000	          0.00000000	          1.89099303	          0.00000000	          0.00000000	          0.00000000	          0.00000000	
          1.42400000	        -30.17004175	        478.58074597	        -14.76501203	          0.95087236	          0.00000000	          0.14161696	          0.00000000	          0.00000000	          0.00000000	          0.00000000	          0.00000000	          0.00000000	          0.00000000	          1.94363000	          0.00000000	          0.00000000	          0.00000000	          0.00000000	
          1.42800000	        -29.87243633	        470.98721458	        -12.07898613	          0.95379555	          0.00000000	          0.14170571	          0.00000000	          0.00000000	          0.00000000	          0.00000000	          0.00000000	          0.00000000	          0.00000000	          2.11045190	          0.00000000	          0.00000000	          0.00000000	          0.00000000	
          1.43200000	        -31.51534577	        463.97674968	        -10.85486281	          0.95696188	          0.00000000	          0.14180186	          0.00000000	          0.00000000	          0.00000000	          0.00000000	          0.00000000	          0.00000000	          0.00000000	          2.35978702	          0.00000000	          0.00000000	          0.00000000	          0.00000000	
          1.43600000	        -34.24211192	        457.48666237	        -11.02156374	          0.96025314	          0.00000000	          0.14192045	          0.00000000	          0.00000000	          0.00000000	          0.00000000	          0.00000000	          0.00000000	          0.00000000	          2.63547859	          0.00000000	          0.00000000	          0.00000000	          0.00000000	
          1.44000000	        -36.95122680	        451.44388452	        -12.25443801	          0.96351199	          0.00000000	          0.14207952	          0.00000000	          0.00000000	          0.00000000	          0.00000000	          0.00000000	          0.00000000	          0.00000000	          2.87559538	          0.00000000	          0.00000000	          0.00000000	          0.00000000	
          1.44400000	        -38.60261731	        445.81537688	        -14.04406911	          0.96655077	          0.00000000	          0.14227235	          0.00000000	          0.00000000	          0.00000000	          0.00000000	          0.00000000	          0.00000000	          0.00000000	          3.03153548	          0.00000000	          0.00000000	          0.00000000	          0.00000000	
          1.44800000	        -38.51156480	        440.63400670	        -15.80540449	          0.96922938	          0.00000000	          0.14246824	          0.00000000	          0.00000000	          0.00000000	          0.00000000	          0.00000000	          0.00000000	          0.00000000	          3.08065527	          0.00000000	          0.00000000	          0.00000000	          0.00000000	
          1.45200000	        -36.51989890	        435.97042811	        -17.00828065	          0.97149466	          0.00000000	          0.14263909	          0.00000000	          0.00000000	          0.00000000	          0.00000000	          0.00000000	          0.00000000	          0.00000000	          3.02941122	          0.00000000	          0.00000000	          0.00000000	          0.00000000	
          1.45600000	        -32.98843511	        431.89007404	        -17.29304912	          0.97337720	          0.00000000	          0.14277415	          0.00000000	          0.00000000	          0.00000000	          0.00000000	          0.00000000	          0.00000000	          0.00000000	          2.90835908	          0.00000000	          0.00000000	          0.00000000	          0.00000000	
          1.46000000	        -28.65454627	        428.43952092	        -16.53313079	          0.97497009	          0.00000000	          0.14287668	          0.00000000	          0.00000000	          0.00000000	          0.00000000	          0.00000000	          0.00000000	          0.00000000	          2.76261128	          0.00000000	          0.00000000	          0.00000000	          0.00000000	
          1.46400000	        -24.42814275	        425.66022183	        -14.83635176	          0.97639372	          0.00000000	          0.14294603	          0.00000000	          0.00000000	          0.00000000	          0.00000000	          0.00000000	          0.00000000	          0.00000000	          2.64087693	          0.00000000	          0.00000000	          0.00000000	          0.00000000	
          1.46800000	        -21.16588047	        423.59805605	        -12.49952250	          0.97778100	          0.00000000	          0.14296409	          0.00000000	          0.00000000	          0.00000000	          0.00000000	          0.00000000	          0.00000000	          0.00000000	          2.58456194	          0.00000000	          0.00000000	          0.00000000	          0.00000000	
          1.47200000	        -19.45523099	        422.28795984	         -9.93389648	          0.97924010	          0.00000000	          0.14290387	          0.00000000	          0.00000000	          0.00000000	          0.00000000	          0.00000000	          0.00000000	          0.00000000	          2.61769947	          0.00000000	          0.00000000	          0.00000000	          0.00000000	
          1.47600000	        -19.46291130	        421.71438234	         -7.58407539	          0.98079571	          0.00000000	          0.14274716	          0.00000000	          0.00000000	          0.00000000	          0.00000000	          0.00000000	          0.00000000	          0.00000000	          2.73940900	          0.00000000	          0.00000000	          0.00000000	          0.00000000	
          1.48000000	        -20.89608407	        421.78289516	         -5.85773510	          0.98243085	          0.00000000	          0.14252320	          0.00000000	          0.00000000	          0.00000000	          0.00000000	          0.00000000	          0.00000000	          0.00000000	          2.92186314	          0.00000000	          0.00000000	          0.00000000	          0.00000000	
          1.48400000	        -23.08458260	        422.35334652	         -5.06536146	          0.98409477	          0.00000000	          0.14230372	          0.00000000	          0.00000000	          0.00000000	          0.00000000	          0.00000000	          0.00000000	          0.00000000	          3.11637903	          0.00000000	          0.00000000	          0.00000000	          0.00000000	
          1.48800000	        -25.16409824	        423.31532022	         -5.36742923	          0.98567640	          0.00000000	          0.14214924	          0.00000000	          0.00000000	          0.00000000	          0.00000000	          0.00000000	          0.00000000	          0.00000000	          3.26744832	          0.00000000	          0.00000000	          0.00000000	          0.00000000	
          1.49200000	        -26.31797920	        424.63075339	         -6.73429708	          0.98704251	          0.00000000	          0.14208923	          0.00000000	          0.00000000	          0.00000000	          0.00000000	          0.00000000	          0.00000000	          0.00000000	          3.33053450	          0.00000000	          0.00000000	          0.00000000	          0.00000000	
          1.49600000	        -26.00238291	        426.30974496	         -8.93417043	          0.98808367	          0.00000000	          0.14211268	          0.00000000	          0.00000000	          0.00000000	          0.00000000	          0.00000000	          0.00000000	          0.00000000	          3.28687643	          0.00000000	          0.00000000	          0.00000000	          0.00000000	
          1.50000000	        -24.07438828	        428.36295843	        -11.57179661	          0.98876303	          0.00000000	          0.14220977	          0.00000000	          0.00000000	          0.00000000	          0.00000000	          0.00000000	          0.00000000	          0.00000000	          3.14940820	          0.00000000	          0.00000000	          0.00000000	          0.00000000	
          1.50400000	        -20.78981349	        430.79833490	        -14.18253667	          0.98911557	          0.00000000	          0.14235789	          0.00000000	          0.00000000	          0.00000000	          0.00000000	          0.00000000	          0.00000000	          0.00000000	          2.95800141	          0.00000000	          0.00000000	          0.00000000	          0.00000000	
          1.50800000	        -16.70102612	        433.65088520	        -16.34427637	          0.98925570	          0.00000000	          0.14251370	          0.00000000	          0.00000000	          0.00000000	          0.00000000	          0.00000000	          0.00000000	          0.00000000	          2.76700115	          0.00000000	          0.00000000	          0.00000000	          0.00000000	
          1.51200000	        -12.49997952	        436.98613305	        -17.75206690	          0.98930412	          0.00000000	          0.14264172	          0.00000000	          0.00000000	          0.00000000	          0.00000000	          0.00000000	          0.00000000	          0.00000000	          2.63056688	          0.00000000	          0.00000000	          0.00000000	          0.00000000	
